<?xml version="1.0" encoding="UTF-8" standalone="no"?>
<svg
   xmlns:dc="http://purl.org/dc/elements/1.1/"
   xmlns:cc="http://creativecommons.org/ns#"
   xmlns:rdf="http://www.w3.org/1999/02/22-rdf-syntax-ns#"
   xmlns:svg="http://www.w3.org/2000/svg"
   xmlns="http://www.w3.org/2000/svg"
   xmlns:sodipodi="http://sodipodi.sourceforge.net/DTD/sodipodi-0.dtd"
   xmlns:inkscape="http://www.inkscape.org/namespaces/inkscape"
   width="530.285"
   height="673.324"
   id="svg2443"
   sodipodi:version="0.32"
   inkscape:version="0.46+pre4"
   sodipodi:docname="tree.svg"
   inkscape:output_extension="org.inkscape.output.svg.inkscape">
  <metadata
     id="metadata2466">
    <rdf:RDF>
      <cc:Work
         rdf:about="">
        <dc:format>image/svg+xml</dc:format>
        <dc:type
           rdf:resource="http://purl.org/dc/dcmitype/StillImage" />
        <dc:title>Tree</dc:title>
        <dc:subject>
          <rdf:Bag>
            <rdf:li>tree plant stem leaves green</rdf:li>
          </rdf:Bag>
        </dc:subject>
      </cc:Work>
    </rdf:RDF>
  </metadata>
  <sodipodi:namedview
     inkscape:window-height="975"
     inkscape:window-width="1280"
     inkscape:pageshadow="2"
     inkscape:pageopacity="0.0"
     guidetolerance="10.0"
     gridtolerance="10.0"
     objecttolerance="10.0"
     borderopacity="1.0"
     bordercolor="#666666"
     pagecolor="#ffffff"
     id="base"
     showgrid="false"
     inkscape:zoom="0.64159308"
     inkscape:cx="47.953666"
     inkscape:cy="346.6497"
     inkscape:window-x="-4"
     inkscape:window-y="-4"
     inkscape:current-layer="svg2443" />
  <defs
     id="defs2445">
    <inkscape:perspective
       sodipodi:type="inkscape:persp3d"
       inkscape:vp_x="0 : 336.66199 : 1"
       inkscape:vp_y="0 : 1000 : 0"
       inkscape:vp_z="530.28497 : 336.66199 : 1"
       inkscape:persp3d-origin="265.14249 : 224.44132 : 1"
       id="perspective16" />
    <marker
       id="ArrowEnd"
       viewBox="0 0 10 10"
       refX="0"
       refY="5"
       markerUnits="strokeWidth"
       markerWidth="4"
       markerHeight="3"
       orient="auto">
      <path
         d="M 0 0 L 10 5 L 0 10 z"
         id="path2448" />
    </marker>
    <marker
       id="ArrowStart"
       viewBox="0 0 10 10"
       refX="10"
       refY="5"
       markerUnits="strokeWidth"
       markerWidth="4"
       markerHeight="3"
       orient="auto">
      <path
         d="M 10 0 L 0 5 L 10 10 z"
         id="path2451" />
    </marker>
  </defs>
  <g
     id="g2399"
     transform="translate(1.5586203,-3.1172406)"
     style="fill:#222222;fill-opacity:1">
    <path
       id="path2459"
       d="M 259.90625,24 C 253.38962,21.134016 250.41431,29.872452 245.09375,27.96875 C 240.65769,27.985669 234.60773,28.578759 232.125,32.34375 C 232.83667,37.169926 227.40158,44.882924 233.16343,47.312103 C 237.2747,51.406267 244.67191,52.576143 247.96274,46.931869 C 254.95808,40.889337 243.35418,51.692946 244.53609,54.745128 C 246.46967,60.583454 245.43895,68.365377 237.58927,64.377559 C 231.18395,60.844765 243.87392,61.011224 243.34163,58.946509 C 244.8015,52.483932 239.6383,50.24371 234.21875,49.78125 C 227.67479,48.693764 224.69439,57.920899 220.38356,53.298721 C 213.87854,50.138518 209.76762,51.583521 212.09253,45.142376 C 207.06665,44.081819 199.29093,35.438637 197.78427,44.026559 C 194.93934,49.940732 190.28254,33.471782 185.83568,38.727793 C 179.34656,46.157596 179.88768,38.0905 177.28336,32.972968 C 176.31883,26.085079 168.35369,29.885869 164.25,31.15625 C 159.57946,33.619247 160.77705,43.854726 154.78125,40 C 149.9949,40.538096 147.90053,51.237395 141.57496,44.833153 C 136.38052,42.451503 132.87129,50.988715 128.36654,53.142558 C 123.51175,54.682051 115.37502,49.431795 113.30002,56.221275 C 107.45183,60.906041 112.06779,65.705661 115.13055,70.460787 C 118.48584,73.713589 114.50878,77.996814 115.15625,82 C 114.53653,87.690292 116.23276,93.658202 116.9375,98.875 C 111.85564,99.237941 114.74471,88.711719 112.73154,84.593927 C 111.09884,80.027016 113.83279,71.817821 106.96875,71.625 C 103.14744,74.946423 98.500311,76.668927 92.318334,73.371935 C 86.580204,69.477562 83.961831,79.771086 78.07782,75.417522 C 71.30206,71.136458 69.213378,77.907444 66.379063,82.916447 C 61.061437,88.764614 62.864279,96.735681 62.09375,103.9375 C 65.951803,108.09305 51.639718,110.05525 55.71875,114.09375 C 62.600211,117.86633 58.580607,123.99527 58.662392,129.12657 C 64.468599,133.86465 65.774913,137.25399 57.131665,134.09369 C 49.396245,129.75396 49.399137,136.59081 48.846043,142.65697 C 50.802642,147.93407 53.023973,152.19764 46.75,155.875 C 49.058065,162.06802 51.39398,168.25071 53.71875,174.4375 C 57.648122,172.19157 67.131112,174.12072 65.78125,167.875 C 65.74535,159.31171 68.887494,151.02064 73.90625,144.15625 C 74.273522,139.21807 65.379255,133.55047 72.5,134.0625 C 74.624263,131.91959 78.75187,145.41777 75.223356,146.18198 C 69.798372,147.63994 68.999145,154.65053 67.46875,159.4375 C 64.829813,169.64667 71.540264,179.67603 80.5,184.0625 C 77.708279,190.30425 74.718571,196.52363 75.40625,203.5625 C 75.906701,195.51238 69.302177,196.64847 63.375,196.9375 C 60.494125,199.50546 60.092246,208.34783 56.0625,204.28125 C 50.887643,205.44849 42.260366,202.46407 42.561075,210.3784 C 38.773328,216.47564 44.819798,221.26604 47.375,226.5 C 41.337695,226.45301 36.395509,232.52086 38.34375,238.5 C 39.645673,243.55705 37.188849,251.38363 44.369163,252.13539 C 54.612003,256.29698 37.071595,251.38535 36.345617,254.03786 C 35.771049,257.25385 41.723355,265.76471 36.71875,265.34375 C 28.459651,264.876 26.475935,276.71544 32.012453,281.28618 C 33.153803,287.23525 46.664155,284.28663 45.602154,286.56006 C 39.481327,288.52784 33.045565,286.9084 26.9375,285.78125 C 31.423993,290.9104 35.05266,297.66534 40.125,301.71875 C 40.468706,303.71942 35.150581,310.43043 42.82729,314.12567 C 44.071963,320.49874 54.988814,312.15513 51.4375,319.8125 C 54.588277,326.00982 60.457201,326.25063 66.65625,325.78125 C 70.033518,319.64098 62.539269,317.30292 59.159149,313.51632 C 56.275949,309.53056 56.578692,303.13448 59.432662,298.40348 C 61.343891,296.61771 62.412452,283.53626 64.83789,288.7842 C 64.685981,290.92828 61.28661,293.53388 62,297.21875 C 60.361671,308.98856 68.753243,319.88262 79.8125,323.125 C 85.11914,323.41979 84.835571,327.19964 83.90625,331.6875 C 88.623207,334.19663 93.250155,337.45281 98.28125,333.84375 C 101.5395,338.47908 105.53681,344.39528 112.15625,342.59375 C 116.20836,343.25029 119.38669,340.12945 121.875,337.46875 C 126.16969,341.60925 131.42497,346.20625 137.09375,347.21875 C 145.05772,344.41985 153.92265,339.53068 155.5625,330.5 C 160.62361,330.16245 168.79595,336.89952 171.23542,330.63461 C 175.44068,325.729 175.72922,317.91108 170.4375,313.6875 C 172.58503,308.56359 181.29035,313.86565 185.55012,310.83789 C 192.95049,308.95625 190.96965,300.61929 193.40371,294.97112 C 196.33095,289.21064 189.6757,284.96301 187.53125,280.03125 C 180.36684,286.87805 181.10677,281.72948 183.15508,274.56426 C 186.54485,268.93531 174.70308,268.00818 176.68745,263.91265 C 177.77487,253.68533 180.11283,266.10889 185.60014,268.12096 C 188.64609,272.42292 187.77839,278.74607 193.5625,281.90625 C 195.97405,279.70799 199.01842,278.11297 202.375,278.59375 C 204.31724,275.99138 211.28572,262.64575 209.18028,268.64931 C 204.12456,275.47608 211.42998,276.012 216.76656,277.55531 C 222.05668,279.2031 224.90254,270.73535 229.20762,268.26037 C 229.05455,270.78236 218.60964,276.63457 224.89929,278.82878 C 229.8968,282.4524 235.97964,283.04386 241.5625,280.40625 C 244.32459,275.76435 241.41037,269.00222 244.625,266.09375 C 251.18369,265.46202 259.4234,269.14145 263.46875,262.21875 C 264.14536,257.97148 269.99557,247.16682 262.25,254.03125 C 263.23995,248.5556 264.93403,242.18541 266.1875,236.375 C 271.22538,236.17417 269.86514,246.77618 272.375,250.84375 C 275.72659,254.30486 284.07117,251.16412 289.34211,252.09071 C 292.15833,253.80386 278.59015,253.45883 274.63974,253.85237 C 267.75708,252.19185 267.80682,261.15157 264.625,265.1875 C 261.23852,270.83203 266.65444,273.5781 270.45826,276.75807 C 274.61551,281.06238 279.31179,278.46395 282.57508,274.66431 C 284.7478,268.32373 287.05269,268.40157 293.34375,271.15625 C 297.92051,271.31781 304.17412,272.22584 304.84375,267.40625 C 308.36346,272.70159 313.41529,276.86823 318.6875,280.3125 C 315.10659,280.83793 304.76101,275.49061 308.5,282.4375 C 309.86905,286.31967 308.8269,294.68712 314.46875,295.125 C 319.07994,292.85177 320.11471,286.02768 323.75,283.375 C 329.07033,290.5382 331.84175,271.78604 334.37913,279.4044 C 337.63773,281.41696 344.26546,286.2217 348.06182,283.62493 C 353.24554,277.36785 355.78824,278.52711 360.8028,283.0724 C 366.89511,286.97386 374.21967,283.3307 377.25824,277.3428 C 380.14371,271.00504 387.99042,275.96703 393.28779,275.68344 C 402.49787,274.51329 397.91252,279.80539 391.55689,279.76489 C 386.58508,279.18389 379.18184,276.83462 377.51246,283.55289 C 374.3812,287.77695 367.28589,292.26934 362.91764,286.93361 C 358.41129,280.48315 353.14173,286.38669 348.08028,288.78555 C 343.78849,291.87183 334.74562,292.95779 339.31558,299.79296 C 339.42447,305.64349 346.96538,304.18242 350.90625,306.03125 C 360.42018,304.11561 358.73986,308.11106 353.65188,313.90061 C 353.14996,310.27879 351.67632,306.8764 347.25,307.71875 C 342.77803,307.12795 338.42263,305.88119 334.28125,304.25 C 332.38184,299.38144 332.85945,288.08931 326.35376,295.7189 C 321.40218,300.1141 313.82237,302.64507 310.43415,308.14615 C 308.89455,313.53353 318.58096,314.90937 321.71458,318.62982 C 326.04352,321.29849 332.49661,328.06993 336.75,321.84375 C 343.56998,320.61374 342.2055,331.97646 349.125,329.53125 C 356.95202,331.10581 359.21902,328.41511 355.52853,321.21629 C 351.02278,311.8529 356.6625,315.27087 362.46708,319.001 C 367.64812,321.85302 372.56279,325.69296 378.84375,324.625 C 375.76383,331.70724 376.84584,335.56314 385.18373,333.90027 C 391.34958,335.96885 393.36226,328.81306 395.9375,324.75 C 398.24403,321.58618 397.77875,314.54923 403.19342,317.32663 C 408.99387,318.82282 414.8175,320.29041 417.36063,313.34259 C 422.33729,310.07321 422.83267,301.63176 427.12368,301.03593 C 433.92647,302.81221 436.9795,298.58761 439.08276,292.74218 C 443.19136,285.02332 442.54911,299.94903 436.65205,301.02247 C 434.12593,306.71731 426.40374,297.66088 424.5132,304.9279 C 424.3785,310.95625 425.60466,315.80828 432.5735,315.87418 C 437.28396,318.70614 443.97082,316.99801 447.3125,313.8125 C 450.4985,309.43999 449.42205,298.72822 456.56171,300.2357 C 462.73945,302.35962 465.51458,297.71931 468.1875,293 C 470.22762,286.60962 465.581,283.90355 460.5625,281.40625 C 462.33687,278.8998 464.73879,266.22977 464.82377,270.62035 C 465.11277,276.97302 464.81286,283.51735 469.86982,288.20726 C 470.66973,294.07046 477.40116,295.57755 478.63879,288.91448 C 484.22563,282.97542 473.28468,281.78521 477.5,278.28125 C 478.53625,273.59894 478.17098,261.5551 479.09247,272.96749 C 478.77265,280.02723 484.66794,285.95863 481.43515,293.03362 C 478.39861,295.65128 469.89343,291.19824 467.9375,297.0625 C 465.18032,301.46442 458.79572,301.83132 456.32263,305.71231 C 454.14002,310.17108 462.36036,315.8253 466.46416,315.67712 C 472.36222,315.77506 478.28795,315.80782 479.49415,308.71174 C 484.10686,302.63608 480.29784,297.10624 488.59855,301.02175 C 493.7622,302.70006 496.32992,295.74737 498.5053,292.08776 C 500.54439,287.42104 505.76229,280.6479 500.28125,276.375 C 493.73565,279.01316 495.01452,269.16234 492.76449,265.67674 C 490.6041,259.65407 482.05047,264.53153 478.78125,262.09375 C 482.35788,257.05637 478.00893,249.88722 471.84375,251.875 C 470.27642,249.46208 476.16028,240.36906 471.09375,240.125 C 467.60709,239.07157 454.12135,241.02578 460.32759,238.07729 C 460.48491,232.87697 464.97273,226.19089 458.50738,223.27983 C 449.27094,216.94648 458.86391,219.79444 464.505,220.7639 C 470.30646,227.00433 471.80805,225.62291 470.2348,217.3213 C 472.30433,209.05545 465.3386,209.39379 459.1513,209.01506 C 452.43082,207.69009 453.87782,219.19265 454.62718,207.27005 C 458.05636,199.78167 448.27221,199.90768 443.7613,197.01789 C 435.07914,195.00533 438.23592,193.75551 438.9135,187.3466 C 437.25595,181.5965 438.77193,173.4426 431.21301,172.14366 C 425.8546,168.56954 420.72468,166.21416 417.46366,173.4329 C 414.30884,174.37584 425.43265,165.41002 420.67454,160.76144 C 419.53556,155.50062 412.35592,153.99294 408.8125,150.34375 C 413.22828,150.98946 423.96802,149.17541 423.52762,154.55831 C 423.83203,158.73392 420.88356,167.08353 426.74472,167.77779 C 430.77259,170.39939 440.55134,169.73343 441.1947,174.28987 C 439.15748,180.4098 439.93782,186.83266 439.8125,193.15625 C 443.18336,189.85907 446.08684,191.07708 448.5,194.5 C 451.85631,198.04821 455.93681,201.33404 461.0625,201.59375 C 462.30294,196.60841 473.05768,197.27795 471.35325,190.35245 C 469.70473,181.67654 476.55497,182.03427 481.35943,179.22345 C 488.14258,174.96898 484.55775,171.39467 479.19574,167.99999 C 475.7973,163.33824 466.81316,163.37863 467.96875,156.25 C 461.7559,153.31697 464.27163,151.04038 469.58497,146.55252 C 475.98658,143.07939 473.38212,136.0835 473.53125,130.15625 C 466.9695,131.5797 461.32175,134.53581 457.16188,139.91948 C 450.3648,146.18696 462.02585,135.87891 458.875,131.96875 C 456.44194,127.99445 454.54898,120.75339 448.40625,122.75 C 450.58364,118.20783 448.84623,111.67451 443.00901,111.57416 C 439.31376,110.43495 431.32075,108.44228 438.84375,108 C 445.49385,107.08117 451.39763,111.06898 455.875,115.5625 C 456.5706,109.98939 458.0589,104.09776 455.8285,99.13895 C 456.19324,95.453075 460.59157,87.181315 455.96875,86.96875 C 450.8453,87.550535 446.47388,86.304838 442.28125,83.625 C 437.55598,81.426668 431.85761,80.893629 427.03125,83.125 C 431.35489,79.14094 429.88554,72.978024 430.84375,67.75 C 424.77497,67.872019 418.01068,69.228013 416.21913,61.761499 C 413.64615,56.238505 406.11308,54.865911 416.15904,53.827429 C 414.60384,49.784881 413.89621,42.903913 410.73618,39.970358 C 404.91006,36.649132 402.21203,42.079346 398.9375,46 C 399.95227,51.439795 402.27023,57.766439 394.74264,52.235512 C 390.21034,46.514779 382.13427,52.938706 384.65625,57.25 C 388.88089,60.395857 392.69674,68.597154 398.33641,64.570039 C 399.87683,57.189492 405.17266,54.983912 399.375,62.90625 C 397.82715,67.37544 408.4555,70.596294 405.25,76.15625 C 400.80229,73.767885 396.73773,67.003811 392.0625,67.1875 C 385.4056,72.136101 388.54861,61.799121 381.13232,61.46411 C 373.00248,53.941802 375.26164,62.198604 368.84463,62.896314 C 359.81016,64.299583 364.64086,61.4699 368.96616,57.585636 C 366.64089,51.401302 363.44934,50.704881 372.625,50.46875 C 377.2805,50.117722 372.00325,42.779949 372.1875,39.40625 C 369.85718,33.887957 362.34948,36.606597 359.625,40.3125 C 357.96085,45.207753 361.92776,52.926534 352.71875,49.21875 C 358.59757,48.973355 356.54922,39.284918 359.06253,35.029784 C 360.14322,29.430382 355.96201,23.197464 349.97073,27.27594 C 341.93923,26.397738 343.22515,34.279731 342.00721,39.831847 C 342.94147,41.946629 344.05273,44.913625 344.40625,47.78125 C 344.14783,51.275594 334.1276,44.371483 330.04525,43.79282 C 324.45023,42.924108 331.36887,34.884875 324.91528,32.511831 C 320.68435,31.32412 312.47365,20.375148 312.01553,28.385384 C 308.8071,34.691797 312.61529,35.556899 315.15625,39.96875 C 316.16584,44.189566 320.68563,49.376061 325.21875,46.46875 C 325.04931,49.129085 324.9931,51.831178 325.375,54.46875 C 320.66977,49.669511 314.90553,46.937823 308.3125,45.84375 C 307.10187,39.819739 306.36818,33.06615 298.75,36.84375 C 306.35091,31.409223 301.31214,29.340052 294.35922,27.848906 C 288.22305,23.72865 283.86624,26.396711 280.29551,32.128612 C 277.98427,36.046445 284.0274,40.109505 288.03125,39.21875 C 293.01079,43.713462 300.85254,34.886029 295.38893,42.628386 C 289.90607,44.034514 283.59779,38.531634 278.53125,40.3125 C 280.95556,34.67458 274.44881,34.311682 271.125,31.71875 C 267.06745,29.619025 263.77872,25.913884 259.90625,24 z M 263.21875,47.40625 C 264.94337,55.164544 273.25925,49.336094 276.62961,53.327661 C 282.69353,61.405927 274.06607,59.39777 270.19863,54.382278 C 263.94011,54.864957 262.98848,49.569234 258.3807,46.486146 C 246.92844,41.758977 260.67616,43.773442 263.21875,47.40625 z M 345.59375,49.78125 C 345.55236,49.901721 345.39784,49.682241 345.59375,49.78125 z M 169.4375,51.4375 C 173.72898,52.832882 177.12146,59.790624 181.5796,58.084784 C 191.32322,53.893324 186.78968,57.530197 179.65625,59.6875 C 174.08263,69.566364 179.47136,58.125788 172.71474,56.988269 C 170.87512,52.935963 156.1317,54.071202 162.32286,51.625425 C 164.70126,49.617145 166.84196,50.427477 169.4375,51.4375 z M 197.59375,56.6875 C 202.16176,61.311158 206.78881,65.904921 206.73905,72.866736 C 208.36383,80.0787 214.63859,74.888332 219.53125,75.90625 C 226.48964,79.349442 229.73641,71.096185 230.28668,69.430325 C 229.16061,71.88121 231.44912,78.657671 226.875,77.40625 C 217.83379,75.993974 207.95945,78.125756 200.40625,83.34375 C 204.2162,75.718149 204.6023,63.993167 196.06977,59.418996 C 191.32813,55.672199 191.64595,56.148706 197.59375,56.6875 z M 325.875,57.5 C 326.74674,60.896579 327.80868,64.080922 326.34375,67.5625 C 327.32801,63.413085 320.59589,61.102863 325.875,57.5 z M 148.53125,70.625 C 143.37312,68.512389 138.48297,65.352456 132.6875,65.6875 C 137.75747,64.658635 145.00059,68.064185 148.71939,64.258324 C 149.79653,63.07813 148.37344,69.29262 148.53125,70.625 z M 355.21875,71.96875 C 349.67816,71.68654 342.80977,69.0105 338.03125,70.25 C 341.84112,67.695969 346.34493,64.839346 350.75,67.34375 C 356.79031,69.188227 359.73337,62.949131 355.21875,71.96875 z M 306.375,73.46875 C 312.10187,76.684795 316.16438,72.015811 318.47988,74.663144 C 324.5851,75.37136 323.48283,74.768172 327.41857,79.351885 C 329.12923,82.90707 329.37285,88.627687 333.5625,91.25 C 337.43754,94.217118 342.48888,95.410874 347.25,95.40625 C 340.04948,95.621824 337.94327,100.30681 337.94012,106.8759 C 333.97761,113.92556 344.0853,118.33958 341.70296,125.22054 C 340.73985,136.25744 340.82807,122.34536 339.15625,118.8125 C 333.29849,115.36139 333.58924,111.47104 337.15625,107.28125 C 336.51012,101.27434 335.07608,95.732709 329.2878,92.783227 C 325.22264,89.317983 328.68476,80.612062 321.22443,80.342846 C 316.81546,80.119629 308.81614,71.409277 307.17213,77.714543 C 306.12898,82.784907 301.19662,88.627936 302.4375,93.25 C 310.40315,100.21596 299.99126,94.309812 300.87847,89.209875 C 301.13022,83.111531 306.19395,75.948369 299.9375,71.46875 C 293.14609,62.827694 303.98553,72.791547 306.375,73.46875 z M 379.71875,81.375 C 384.28899,83.800016 388.28243,90.673002 393.67868,86.098276 C 400.53555,86.017975 404.29596,89.760366 401.3125,95.96875 C 400.71369,89.209235 391.40975,86.445714 386.46875,89.25 C 382.29535,85.154198 376.14254,84.694948 370.9375,82.59375 C 372.60736,79.791486 376.97896,81.905969 379.71875,81.375 z M 426.90625,84.5 C 426.44285,97.284255 426.13332,110.25477 424.90625,122.8125 C 428.84408,129.33471 431.91887,136.92294 427.96875,144.25 C 423.95043,155.51084 426.22374,144.12069 426.89993,138.48046 C 429.77135,131.14428 421.72955,126.70182 418.53125,120.96875 C 425.18909,116.56065 421.7652,113.03664 416.29023,109.66116 C 416.12923,104.69048 408.02084,98.279908 417.65625,102.3125 C 423.52416,102.45419 417.40798,92.03944 422.72598,89.210088 C 423.47508,88.867648 427.73519,80.723032 426.90625,84.5 z M 199.96875,97.84375 C 198.30243,103.93805 197.921,91.605082 194.75654,90.977678 C 198.80352,82.591679 198.13466,94.220589 199.96875,97.84375 z M 365.03125,99.4375 C 362.6711,106.48505 351.31085,94.344006 354.46152,94.861324 C 358.36368,94.197763 361.51298,98.185035 365.03125,99.4375 z M 402.78125,98.4375 C 413.60255,99.119318 392.44904,102.4654 401.40625,98.25 C 401.28696,97.572689 402.43781,98.522155 402.78125,98.4375 z M 372.84375,98.96875 C 378.98117,98.364455 384.66764,102.0873 389.9375,103.625 C 397.81685,97.68422 389.14194,112.8894 387.15625,110.8125 C 384.7405,105.87659 384.0389,98.747717 376.86269,99.820009 C 376.26313,99.612095 371.70691,99.060844 372.84375,98.96875 z M 206.15625,101.75 C 212.01977,103.21841 210.00346,109.81197 210.1875,114.28125 C 205.45859,112.45501 213.98357,103.50456 205.11674,101.96026 C 201.28981,99.249236 203.19945,100.1683 206.15625,101.75 z M 103.21875,105.125 C 98.42506,111.24788 97.52912,120.47571 100.84375,127.125 C 104.73174,130.53028 109.29926,130.60715 110.56507,134.74731 C 113.34238,138.75625 122.8917,147.49608 112.56831,142.35292 C 107.51164,139.32484 104.22192,140.07755 104.875,146.125 C 104.48829,152.44541 106.00404,158.64083 107.125,164.8125 C 101.51426,165.18271 102.72036,161.19997 102.96461,156.3771 C 102.50927,148.97479 104.55284,140.83397 102.59375,133.875 C 96.570946,125.8632 97.500785,114.56386 98.34375,105.75 C 100.31096,106.77791 101.56955,106.23535 103.21875,105.125 z M 79.5625,116.40625 C 78.003156,119.70212 87.609017,122.72992 83,125.0625 C 80.347149,126.78893 75.302872,129.77172 80.203809,124.84107 C 81.914892,120.41904 73.62779,115.87592 78.3125,110.125 C 86.978141,102.63592 80.427651,110.94194 79.5625,116.40625 z M 215.6875,116.34375 C 222.29866,120.39463 221.58296,129.93857 218.40625,135.90625 C 217.39639,140.10881 222.8255,142.86281 220.40625,147.125 C 218.07324,151.12476 221.18069,156.16681 225.90625,155.53125 C 233.1354,155.85292 239.80651,165.70235 233.55105,171.3763 C 228.40208,178.18678 238.86379,164.0349 231.68743,162.94494 C 227.72329,159.25851 224.53154,153.19746 218.31068,156.46412 C 217.0823,150.52539 221.11906,142.1851 215.25,138.25 C 220.65033,136.40068 217.14814,128.38585 218.6875,123.875 C 218.02969,121.788 215.25387,117.22228 215.6875,116.34375 z M 109.625,123.34375 C 109.34115,125.81379 108.7176,123.85908 109.625,123.34375 z M 340.40625,135.84375 C 341.88464,140.16177 352.03315,144.68691 341.24732,142.0611 C 335.47644,139.21418 331.24743,149.0468 327.99153,146.65458 C 325.38523,141.81502 315.5936,137.68966 325.25929,139.65478 C 329.28604,141.32037 336.75242,142.29715 338.35411,136.44988 C 339.80851,134.81299 341.63288,130.16212 340.40625,135.84375 z M 453.125,143.84375 C 455.44614,148.1733 465.45874,151.90296 460.12051,156.88358 C 457.11494,160.87381 451.56447,171.73366 454.15033,160.43827 C 455.27733,154.56311 455.70464,148.84582 451.52327,144.02516 C 450.63953,143.65656 455.54347,142.61876 453.125,143.84375 z M 351.96875,147.0625 C 353.41846,151.70464 349.06065,160.96752 355.96875,161.25 C 346.99847,163.99873 349.71918,154.87914 349.1177,149.13213 C 349.34883,145.21381 347.4413,142.59703 351.96875,147.0625 z M 281.375,147.28125 C 276.64304,146.59319 275.68771,143.857 281.375,147.28125 z M 290.1875,152 C 290.56145,157.62501 288.78005,163.76951 295.31242,165.85419 C 302.65625,168.51158 298.11127,176.20153 298.23332,181.93138 C 301.46904,185.8515 310.33491,187.79192 306.26628,194.14156 C 306.39291,199.12212 301.51451,205.84331 297.4375,205 C 300.84449,202.62849 304.20227,195.09147 301.8591,191.45112 C 299.40242,186.95257 291.93528,183.97397 295.875,178.28125 C 297.62974,173.12046 294.81405,165.73585 288.40625,166.65625 C 283.88869,165.20926 287.16657,157.00403 285.81583,152.94953 C 284.65574,146.86152 287.21548,151.10607 290.1875,152 z M 407.53125,151.875 C 404.99835,153.86689 399.07228,166.61517 399.15625,160.75 C 396.61348,154.63379 392.50181,148.9462 401.03125,153.1875 C 402.12728,153.35678 411.24171,148.25322 407.53125,151.875 z M 108.8125,165.8125 C 105.70856,164.95921 108.33933,161.68616 108.8125,165.8125 z M 364.4375,167.5 C 363.57495,173.32152 362.77228,179.15301 361.875,184.96875 C 357.462,183.7575 365.44034,178.40297 363.54561,172.2455 C 363.88569,171.16244 363.86338,167.62953 364.4375,167.5 z M 450.125,171.46875 C 436.58284,174.87001 455.92527,164.70422 450.885,170.37205 L 450.31541,171.19398 L 450.125,171.46875 z M 91.46875,171.90625 C 91.063235,173.6962 88.822984,176.30305 90.65625,173.125 C 90.723472,172.89695 91.960477,170.96844 91.46875,171.90625 z M 226.6875,178.59375 C 223.74248,179.89767 226.75362,177.97622 226.6875,178.59375 z M 87.9375,180.8125 C 88.376817,188.72803 95.149564,194.24932 100.84375,198.90625 C 95.13258,205.36772 102.29437,206.47617 107.67813,208.30899 C 103.89395,208.80971 93.703941,202.31523 94.349286,210.82024 C 93.872228,216.14655 88.341593,223.26959 95.727968,225.77937 C 96.353535,230.49346 91.018276,237.41325 92.520757,241.69012 C 100.12984,243.28641 97.819242,249.42695 96.53125,255.09375 C 100.97133,263.08291 96.765288,263.70533 94.231031,255.64397 C 94.354208,250.51199 100.69225,243.66872 92.609378,241.78406 C 87.277296,238.09714 83.686155,241.04227 87.580166,233.35087 C 87.73087,228.36368 94.389443,220.31004 86.554056,219.12504 C 80.316259,217.02537 85.625438,209.14203 77.564495,207.95268 C 71.697167,200.11558 83.074092,209.80545 85.889289,211.74106 C 90.639203,217.34029 92.692844,206.19569 96.15625,203.625 C 98.138731,196.73612 92.846676,193.00583 88.208059,189.00288 C 82.884495,185.0663 82.770412,183.92458 87.9375,180.8125 z M 119.40625,183.375 C 122.16397,185.05667 115.80054,183.91015 114.59375,183.3125 C 110.06069,178.20157 117.63394,182.39593 119.40625,183.375 z M 123.125,186.5 C 126.33327,190.07624 125.68189,196.87179 131.4375,198.15625 C 134.20083,199.52641 137.93003,199.1901 140.4375,199.1875 C 141.39658,204.65776 146.944,207.80348 151.5625,208.875 C 144.58386,209.972 141.40887,203.26329 136.5625,199.875 C 131.72284,197.28929 121.48642,199.26922 123.90585,192.20743 C 123.66788,190.35087 123.29008,188.22398 123.125,186.5 z M 368.625,190.9375 C 370.23522,203.41542 363.44223,214.49379 360.15625,226.15625 C 353.06647,226.5517 353.02123,225.20259 358.84375,223.875 C 360.39571,218.15165 367.33732,212.24693 362.31815,206.73038 C 365.84615,207.05643 368.11391,200.46961 368.08132,194.24101 C 368.27092,193.19696 368.3952,191.84827 368.625,190.9375 z M 409.75,195.53125 C 403.12195,200.02196 398.17107,193.5207 407.27196,193.89481 C 408.09798,194.44029 408.92399,194.98577 409.75,195.53125 z M 399.84375,196.5 C 398.25986,197.31925 401.75596,195.16567 399.84375,196.5 z M 328.1875,200.71875 C 326.1871,209.98616 324.87093,219.23437 321.52843,227.91101 C 317.46088,234.39928 310.25748,235.9443 303.4375,238.09375 C 300.68868,230.95069 306.30255,229.86195 313.04937,232.74309 C 318.50578,234.11479 319.39469,224.84896 322.9375,221.6875 C 320.96211,217.57265 323.09571,214.6298 324.65625,211.0625 C 326.15394,206.92364 324.23808,202.48766 326.125,198.4375 C 326.8125,199.19792 327.5,199.95833 328.1875,200.71875 z M 417.96875,204.90625 C 419.20605,206.9489 435.07242,212.12445 427.04561,210.12179 C 422.88283,206.84828 420.1283,208.69449 418.53125,213.09375 C 415.59408,218.82261 413.98618,225.15023 413.59375,231.59375 C 409.24207,234.02263 404.06179,238.86081 407.35628,233.15126 C 414.31092,232.85065 411.39192,224.69387 412.84375,220.03125 C 410.50554,213.89465 406.05271,213.31677 412.25,212.71875 C 413.88841,211.13444 416.81218,203.54145 417.96875,204.90625 z M 111.625,207.6875 C 112.13803,213.14803 118.40696,215.60583 121.15625,219.90625 C 113.38103,217.60767 119.97923,233.22611 114.0491,228.01995 C 114.37186,221.49138 112.01442,215.2028 109.65625,209.0625 C 110.21614,209.76765 111.32035,207.09978 111.625,207.6875 z M 433.46875,218.3125 C 432.13101,223.60393 428.39538,229.40071 434.46357,233.13779 C 428.32973,235.33602 429.94006,225.53142 431.24922,220.24861 C 432.9038,216.83228 429.11016,209.14644 433.46875,218.3125 z M 82.875,217.4375 C 80.844661,220.12248 81.282703,233.6247 78,223.34375 C 75.682868,220.21021 61.053682,224.41299 71.188884,219.97868 C 74.899325,219.27942 80.244504,212.52845 82.875,217.4375 z M 233.4375,226.375 C 233.97265,228.76522 222.2533,233.39774 227.33255,228.66827 C 229.52873,225.03585 232.65907,221.86688 233.65625,217.65625 C 233.58333,220.5625 233.51042,223.46875 233.4375,226.375 z M 61.5625,249.03125 C 63.69391,255.10395 70.234735,252.92193 73.583301,248.48682 C 81.195612,240.09028 77.124178,251.34811 76.658434,256.54046 C 76.317736,263.45006 67.804217,253.33229 63.84375,252.5625 C 59.388232,259.23547 60.038556,244.67531 57.935079,241.56215 C 54.678365,235.66872 60.481349,230.74931 62.34375,225.40625 C 62.083333,233.28125 61.822917,241.15625 61.5625,249.03125 z M 127.03125,236 C 126.16907,242.19572 123.14185,245.14923 123.6875,236.8125 C 119.34316,230.24113 115.93172,229.94435 124.67288,234.63421 C 125.459,235.08947 126.24513,235.54474 127.03125,236 z M 441.46875,241.5625 C 441.17714,246.23366 438.57298,253.49272 444.875,255.25 C 446.20604,256.11125 450.48069,256.14379 446.90625,257.21875 C 441.945,259.46487 443.7365,262.89566 438.1017,257.05804 C 430.09471,253.95004 439.00245,248.03485 440.8125,243.3125 C 440.60478,241.78931 439.63634,238.57529 441.46875,241.5625 z M 407.6875,246.78125 C 399.14466,253.32664 402.52572,245.25749 407.6875,241.09375 C 407.6875,242.98958 407.6875,244.88542 407.6875,246.78125 z M 226.6875,245 C 223.42837,253.58964 220.41425,251.55459 224.40046,244.98627 C 224.60698,245.22773 227.46851,244.23242 226.6875,245 z M 252.125,246.4375 C 249.78632,254.6616 255.37662,254.95671 262.0625,254.15625 C 259.11259,256.509 245.46471,256.06238 248.08312,254.54404 C 251.29342,253.6676 249.38989,246.79258 252.125,246.4375 z M 398.90625,249.15625 C 392.30919,248.35171 397.12107,259.37833 389.74981,261.71372 C 387.81453,269.19719 376.905,260.24969 379.0078,258.89558 C 382.25578,263.0735 389.58674,263.96168 390.99383,257.76353 C 396.98756,254.58932 389.82493,242.58514 398.1327,248.7579 L 398.90625,249.15625 z M 126.46875,254.15625 C 123.22648,253.62343 124.59049,248.69188 126.46875,254.15625 z M 140.875,257.9375 C 147.8354,264.62665 130.28818,253.66492 135.11335,256.72452 C 137.0339,257.12885 138.95445,257.53317 140.875,257.9375 z M 56.59375,257.625 C 62.977119,256.92656 53.36963,261.28937 55.5,264.84375 C 56.361087,271.99521 59.584888,278.63721 62.8125,285.0625 C 57.592268,284.86559 49.104284,287.32756 53.636806,279.11479 C 53.885005,273.7203 51.904103,268.60861 54.865547,263.16644 C 55.486641,261.51162 55.681397,258.59993 56.59375,257.625 z M 234.5625,258.875 C 228.71747,263.12029 228.43082,256.83157 234.5625,258.875 z M 216,260.96875 C 209.63703,265.27141 208.10719,259.54002 214.51256,260.51377 L 215.46882,260.80627 L 216,260.96875 z M 99.96875,262.875 C 105.01345,262.91755 100.37342,276.84979 101.4946,266.10596 C 102.43999,264.69013 99.711214,262.30762 99.96875,262.875 z M 444.96875,275.625 C 440.9141,280.31015 439.66876,285.87511 434.3125,279.21875 C 440.24686,280.09962 442.57601,265.97835 444.38417,269.70906 C 444.57903,271.68104 444.77389,273.65302 444.96875,275.625 z M 249.40625,269.03125 C 248.39367,273.29002 240.04197,279.62882 243.84375,282.53125 C 248.28064,286.18144 253.77169,286.01905 259.1875,286.15625 C 260.17981,280.12205 261.18523,274.0898 262.21875,268.0625 C 258.3335,268.73469 252.25635,266.69103 249.40625,269.03125 z M 102.625,276.09375 C 103.57813,279.6939 118.471,283.10858 110.98058,281.71215 C 106.937,282.09633 101.64865,278.98093 102.625,276.09375 z M 132.4375,288.625 C 142.29122,290.2479 129.00383,289.08524 126.92732,284.70174 C 117.87703,278.122 123.03157,281.57307 128.95571,286.05848 C 130.11631,286.91399 131.2769,287.76949 132.4375,288.625 z M 421.28125,514.96875 C 411.39885,517.49873 401.2315,518.59942 391,519 C 393.86626,525.13843 381.32725,529.49567 391.74696,530.03905 C 404.43681,533.37744 417.40519,535.73816 430.4375,537.375 C 430.37264,540.48695 424.78134,536.39692 422.3125,536.9375 C 402.0521,533.6457 381.60893,538.0995 361.75873,541.4619 C 344.32369,539.87522 327.04599,535.28767 309.90625,533.15625 C 303.57858,535.84449 298.01305,542.18175 299.5625,549.46875 C 331.37229,552.10435 363.18795,554.67186 395,557.28125 C 382.02189,558.60939 369.05019,559.52618 356.13003,557.13879 C 339.66297,554.51124 322.97205,557.05791 306.40962,555.22767 C 296.15252,555.1355 285.29461,557.73484 276.65625,563.375 C 272.65809,566.02148 270.24515,570.76831 270.625,575.59375 C 284.8757,575.80808 299.24672,578.14356 313.42212,577.12937 C 324.33437,575.66563 335.19896,571.39745 346.16648,574.60173 C 363.85084,577.60248 381.85664,577.79144 399.71027,577.29157 C 402.55636,577.71156 418.58979,577.93461 411.41404,578.7161 C 395.75107,578.94281 380.79693,584.4226 365.0625,583.75 C 349.60606,584.15712 334.19069,580.97671 319.25,578.59375 C 302.30648,586.50354 282.21855,583.07989 264.27058,580.93257 C 256.54512,579.85124 248.76009,582.85548 240.8785,581.99631 C 227.78143,582.20746 213.80532,581.96769 202.47775,589.52098 C 197.92827,593.8729 191.44702,590.68038 186.91582,594.56354 C 176.08425,600.5044 166.10944,608.08015 155.92809,614.80161 C 147.90308,618.02766 155.42947,608.54934 159.32437,608.1074 C 172.20329,600.07407 184.92858,591.06502 200.07888,587.91287 C 211.03053,583.50138 220.30272,575.41762 230.62006,569.61587 C 237.91364,566.67039 225.3253,564.06498 222.90625,561.28125 C 218.9527,561.03421 214.93472,565.13244 210.75,566.21875 C 190.89248,574.77125 168.23427,574.2512 147.15625,571.09375 C 143.22359,572.17041 139.13116,574.15416 137.0625,577.875 C 129.85417,579.14583 122.64583,580.41667 115.4375,581.6875 C 119.28462,577.52171 126.27963,576.51129 131.69577,574.44367 C 143.55911,571.76596 155.26364,567.60058 167.59097,569.26899 C 174.88413,568.75646 182.90272,570.87874 189.77403,568.82709 C 197.38045,564.93964 203.58192,556.62355 212.87083,558.0396 C 218.95046,557.67908 225.70796,559.10227 229.84004,553.4688 C 234.36573,549.74162 243.1016,544.86036 232.23814,545.37841 C 219.34785,544.05632 206.42582,540.80853 193.55537,540.62219 C 181.5549,543.17429 168.81254,543.13843 157.28689,547.34456 C 151.07689,549.44842 144.92963,553.63092 138.68264,554.50914 C 135.69421,552.27588 124.12217,550.86746 125.27231,551.61659 C 139.90438,549.79918 152.60315,541.68701 165.5,535.4375 C 171.11179,533.86544 175.91258,529.89752 177.71875,524.25 C 168.57209,523.98063 159.24224,527.41571 150.59945,522.9726 C 136.42346,516.66385 120.92524,520.88306 106.03125,520.59375 C 95.55222,521.15372 84.876553,519.3245 74.641791,519.30622 C 60.971813,524.24342 46.009449,522.48133 31.741772,524.32025 C 25.623265,523.41038 31.834929,530.14545 32.375,533.15625 C 57.654259,587.53997 107.13786,627.88837 162.33567,649.43153 C 195.54536,662.49179 230.97821,670.24019 266.65625,671.875 C 327.95897,670.4425 390.15425,651.46316 436.71875,610.9375 C 465.4779,586.40308 487.70691,554.7312 503.46875,520.28125 C 475.97932,520.45071 448.45199,518.33747 421.28125,514.96875 z M 253.78125,518.8125 C 245.79108,519.4577 237.40591,519.06906 229.65625,520.34375 C 226.40243,525.84954 219.30865,524.30668 216.64686,528.88284 C 213.84408,533.76228 207.94208,540.2763 217.52831,538.41398 C 224.3836,538.7099 231.23764,539.03676 238.09375,539.3125 C 237.78196,531.85514 242.57709,528.93021 249.29687,527.64913 C 255.43401,527.65941 259.45424,521.04612 253.78125,518.8125 z M 274.34375,523.625 C 264.73928,524.95965 256.02372,529.48719 247.90625,534.5 C 246.0277,535.71681 243.14195,540.41631 244.93235,540.83617 C 254.57899,539.4176 264.7016,539.50133 274.06486,537.14516 C 277.06324,534.02581 287.29266,532.92857 285.59375,528.5 C 283.96394,523.87266 277.8834,526.58411 274.34375,523.625 z M 284.125,539.03125 C 269.16508,543.91404 255.00666,551.74191 239.375,554.15625 C 235.84299,558.36003 229.75734,562.84353 237.92546,565.49234 C 242.7325,570.06766 248.08731,572.26695 254.58654,569.94623 C 260.85269,569.31895 267.31883,569.13943 271.37826,563.57058 C 278.6403,558.01104 284.44469,550.93536 290.6875,544.3125 C 288.48894,543.02439 286.8414,537.86938 284.125,539.03125 z M 108.5625,551.09375 C 115.20552,552.16342 110.92337,551.91951 106.15689,552.00116 C 101.44376,552.42291 106.99139,551.20264 108.5625,551.09375 z M 314.59375,600.34375 C 303.38937,600.17712 291.64153,599.44027 281.03125,603.5625 C 260.32349,600.71937 239.31096,602.84065 218.46875,602.1875 C 225.09581,598.99427 233.40492,601.48308 240.71825,600.60808 C 253.43325,600.34608 266.33403,600.76359 278.9375,600.09375 C 284.14165,595.34511 290.43875,596.49 296.76326,597.78268 C 302.70675,598.63637 308.65025,599.49006 314.59375,600.34375 z M 347.25,598.5625 C 340.45871,599.94771 333.61591,601.10998 326.65625,600.6875 C 333.4233,600.06804 340.95368,598.56931 347.25,598.5625 z"
       style="fill:#222222;fill-rule:evenodd;stroke:none;fill-opacity:1" />
    <path
       style="fill:#222222;fill-rule:evenodd;stroke:none;fill-opacity:1"
       d="M 192.383,303.062 C 191.453,309.277 188.836,313.133 183.754,313.539 C 193.223,322.121 203.032,330.031 213.336,336.957 C 219.367,342.543 223.899,350.441 224.121,363.918 L 226.274,425.703 L 226.887,468.844 C 227.301,483.359 225.516,495.285 218.875,501.504 C 210.77,506.058 202.145,509.711 192.375,511.363 C 180.461,514.66 168.547,516.715 156.633,517.523 C 161.344,519.511 168.266,520.508 181.282,518.761 L 227.504,508.281 C 231.133,506.789 233.754,504.453 234.899,500.887 C 238.016,490.172 239,479.758 239.211,469.457 C 239.903,479.281 240.379,489.394 239.825,500.887 C 239.668,504.461 236.942,507.183 233.047,509.515 C 226.957,511.304 221.051,513.457 215.793,516.91 C 206.082,521.344 196.942,526.637 188.063,532.316 C 214.418,524.676 257.7,510.375 257.86,505.324 L 257.707,479.316 L 260.172,478.703 L 260.325,510.113 L 278.985,525.687 L 297.297,524.929 C 290.11,521.23 282.559,517.32 274.957,514.449 C 270.625,511.789 268.16,508.094 267.563,503.359 L 266.95,460.219 L 268.797,460.219 L 270.028,497.812 C 271.746,503.929 274.645,509.375 279.27,513.836 C 283.582,514.902 287.899,517.531 292.211,519.379 C 296.934,521.844 299.946,524.308 306.075,526.304 L 335.965,532.933 L 339.66,530.469 L 308.848,519.379 C 300.735,516.656 292.457,514.238 285.43,511.668 C 282.133,508.797 279.875,506.648 278.653,503.359 L 274.957,460.836 L 281.735,495.965 C 283.407,501.465 286.739,505.926 291.731,509.347 L 321.789,520.613 L 344.59,529.238 L 350.75,527.39 C 337.571,522.316 324.676,517.597 313.157,514.597 L 297.133,508.289 C 292.188,506.472 289.727,501.34 288.512,492.883 L 287.891,483.64 L 296.516,500.894 C 297.637,502.797 299.489,504.336 301.446,505.824 C 309.047,507.25 316.239,509.511 323.012,512.601 C 335.828,517.926 347.828,522.707 356.907,525.543 L 385.254,524.312 C 367.645,518.953 349.262,513.851 330.403,508.906 C 322.774,506.691 315.633,503.738 308.832,500.277 C 306.078,497.637 304.18,494.711 302.672,491.652 L 294.66,387.496 L 298.2,385.324 C 298.235,376.39 299.067,367.461 300.352,358.527 C 288.399,358.664 283.582,355.176 280.34,348.676 C 286.805,353.07 293.078,356.238 303.285,356.07 C 305.223,351.039 309.649,347.254 312.832,342.531 C 316.535,339.465 320.188,334.371 321.77,327.722 C 316.461,322.527 310.657,318.316 304.516,314.781 L 299.586,318.476 C 296.258,320.531 293.039,322.953 289.727,325.254 L 284.797,330.183 L 279.867,328.336 L 289.422,321.254 L 287.262,278.394 L 284.184,280.883 L 284.797,311.695 L 282.332,311.695 L 281.719,280.883 L 275.871,283.961 L 277.407,305.531 C 276.387,306.972 275.055,307.59 272.789,307.379 L 273.094,284.578 L 263.235,288.273 L 264.317,318.469 L 260.008,318.469 L 259.539,290.121 L 250.297,287.043 L 251.528,312.308 C 249.473,312.929 247.625,312.929 245.985,312.308 L 246.598,287.043 C 243.219,284.242 238.7,284.867 233.657,287.043 L 234.27,306.144 L 231.192,305.531 L 231.203,285.808 L 224.41,283.347 L 225.024,313.543 C 227.653,315.812 232.809,318.25 241.66,320.937 C 240.223,322.988 239.192,325.246 238.582,327.715 L 223.176,317.855 L 192.364,303.066 L 192.383,303.062 z M 246.684,445.144 L 247.864,445.144 L 246.684,465.836 L 246.684,445.144 z M 226.657,358.074 L 228.102,358.074 L 227.25,409.265 L 226.66,358.074 L 226.657,358.074 z M 228.102,430.383 L 231.282,430.383 L 230.465,473.699 L 228.102,430.383 z M 231.282,375.14 L 234.461,375.14 L 232.985,479.547 L 231.285,375.14 L 231.282,375.14 z M 235.91,434.433 L 236.778,434.433 L 235.895,485.336 L 235.91,434.433 z M 236.778,360.39 L 239.668,360.39 L 238.489,428.355 L 236.782,360.39 L 236.778,360.39 z M 241.985,416.789 L 244.586,416.789 L 242.575,460.461 L 241.985,416.789 z M 280.739,430.094 L 283.34,430.094 L 282.809,471.449 L 280.743,430.094 L 280.739,430.094 z M 287.68,429.226 L 289.403,429.226 L 289.403,471.742 L 287.68,471.742 L 287.68,429.226 z M 291.035,372.097 L 293.047,371.894 L 293.028,385.91 L 291.035,372.101 L 291.035,372.097 z M 286.782,368.383 L 289.953,368.183 L 294.344,451.312 L 286.778,368.387 L 286.782,368.383 z M 280.746,371.515 L 283.035,371.344 L 285.918,434.875 L 284.813,435.047 L 280.746,371.515 z M 276.403,360.101 L 279.282,360.101 L 279.282,455.543 L 276.403,455.543 L 276.403,360.101 z M 270.629,378.316 L 274.371,378.609 L 274.371,445.996 L 270.922,445.703 L 270.629,378.316 z M 293.102,364.027 C 292.141,364.019 291.211,364.195 290.246,364.195 C 287.856,364.07 285.922,362.57 284.125,361.137 L 284.125,361.137 C 283.883,360.945 283.731,360.644 283.731,360.312 C 283.731,359.73 284.203,359.254 284.789,359.254 C 285.039,359.254 285.266,359.34 285.45,359.484 L 285.45,359.484 C 286.102,360.004 286.746,360.347 287.34,360.957 L 287.336,360.965 C 289.692,362.289 290.489,361.91 293.075,361.906 C 293.082,361.906 293.09,361.906 293.098,361.906 C 293.68,361.906 294.157,362.379 294.157,362.965 C 294.157,363.547 293.68,364.023 293.098,364.023 L 293.102,364.027 z M 238.211,351.363 C 235.453,353.722 232.692,354.097 229.164,353.316 L 229.164,353.316 C 228.692,353.211 228.336,352.789 228.336,352.285 C 228.336,351.703 228.809,351.226 229.395,351.226 C 229.489,351.226 229.578,351.238 229.664,351.258 C 232.508,351.883 234.606,351.656 236.828,349.754 L 236.828,349.754 C 237.012,349.597 237.254,349.5 237.516,349.5 C 238.098,349.5 238.575,349.972 238.575,350.558 C 238.575,350.879 238.434,351.168 238.207,351.363 L 238.207,351.363 L 238.211,351.363 z M 245.063,343.562 C 238.848,348 231.235,350.859 223.926,347.203 L 223.926,347.203 C 223.473,346.976 223.157,346.504 223.157,345.961 C 223.157,345.195 223.782,344.57 224.547,344.57 C 224.77,344.57 224.981,344.621 225.168,344.715 L 225.168,344.715 C 231.489,347.875 238.098,345.113 243.446,341.297 L 243.446,341.297 C 243.672,341.137 243.95,341.039 244.25,341.039 C 245.016,341.039 245.641,341.664 245.641,342.429 C 245.641,342.894 245.41,343.308 245.059,343.558"
       id="path2463" />
  </g>
  <path
     id="path2394"
     d="M 175.48047,522.71909 C 174.14447,526.28109 170.13647,528.95309 163.45347,530.73809 C 143.84747,542.65609 125.35947,549.56309 109.31647,545.44209 L 86.594165,550.78509 L 131.37147,550.11709 L 140.72647,553.45709 L 162.78147,544.10209 L 196.86747,538.75809 L 234.96147,544.10209 L 224.93747,552.12109 L 206.22647,552.78909 L 188.85147,564.14909 L 155.43347,563.48109 L 130.03947,569.49609 L 116.00447,574.84009 L 112.66447,580.85209 L 139.39447,576.17609 C 140.73047,573.05909 143.84747,570.82809 148.75047,569.49209 C 173.47647,573.39909 198.20747,573.40209 222.93747,559.46909 L 230.95747,564.14509 L 203.55447,581.52009 L 192.86347,584.86009 C 181.72647,587.30909 166.57847,599.11709 153.43347,606.24609 L 149.42647,614.93409 L 158.78147,612.93009 C 168.13647,605.57809 179.27347,598.22709 192.19947,590.87509 L 198.21147,590.87509 L 214.25047,582.85609 L 226.94947,580.85209 L 253.01247,580.18409 L 261.69947,578.84809 C 290.43748,583.52409 310.26548,582.85609 321.17948,576.84409 C 348.69148,583.13709 374.75848,584.36009 398.70748,578.18009 L 417.41848,576.84409 L 417.41848,572.83609 L 396.69948,571.50009 C 379.71548,573.00409 359.55148,571.33609 337.21548,567.49209 L 311.15248,572.16809 L 273.72647,570.16409 C 273.94947,561.92209 283.97247,556.35209 303.80148,553.45709 C 318.72648,554.56709 331.87148,554.79309 343.23448,554.12509 L 373.97648,557.46509 L 408.73048,554.79309 L 408.73048,552.78909 L 302.46148,544.10209 C 302.01548,538.98109 305.13348,534.74609 311.81648,531.40609 L 343.89448,537.42209 L 363.94548,540.09409 C 391.79348,533.96509 416.30148,531.73809 433.45348,538.09009 L 433.45348,532.07809 C 418.52748,530.29709 404.49248,527.62509 391.34748,524.05909 L 394.01948,521.38709 L 394.01948,517.37909 C 404.48848,516.93409 414.07048,515.59809 422.75848,513.37109 C 449.48848,516.93409 474.58648,518.71509 501.32047,518.71509 C 457.61748,612.23109 375.43748,663.88309 265.02347,666.42209 C 159.49247,659.09409 69.269165,607.74209 32.538965,522.83209 L 68.011665,520.31309 L 77.211165,517.38309 C 91.469165,519.38709 108.39847,519.61009 128.00447,518.05109 L 140.03147,518.05109 L 160.08247,524.06709 L 175.45347,522.73109 L 175.48047,522.71909 z M 109.06247,155.28909 C 107.79347,149.10209 107.46947,143.67609 108.29747,139.16809 L 125.18747,144.92609 L 112.51947,129.18809 C 111.11347,123.68809 112.26547,118.69909 115.97247,114.21909 L 108.29747,118.82409 L 108.29747,125.34809 L 102.92647,121.89509 C 102.03147,117.67209 101.39047,113.45309 102.54347,109.22709 C 103.94947,105.39109 106.37947,101.55109 109.83647,97.711091 L 119.04747,97.328091 L 120.58247,95.027091 C 116.67647,85.891091 117.56247,69.527091 122.11747,67.008091 L 127.49247,63.555091 L 139.00847,64.703091 L 151.28947,70.074091 L 152.43747,57.792991 L 159.34447,51.270091 L 166.63647,52.035091 L 175.46547,56.641091 L 175.08247,68.156091 L 181.98847,57.792991 L 191.58247,53.956991 L 200.41047,61.250091 C 203.09747,68.156091 202.45747,76.219091 196.95747,83.128991 L 190.81647,88.117091 L 196.18747,89.652091 L 196.18747,96.945091 L 201.94547,97.711091 L 208.85147,103.08609 L 206.55147,111.52709 L 214.60947,113.82809 L 217.67947,120.73409 L 216.91447,132.25009 L 212.69147,134.16809 L 217.29747,138.39109 L 217.29747,155.27709 L 224.59047,154.12909 L 233.41847,162.95709 L 230.34747,171.39909 L 218.83247,176.77009 L 219.42947,179.91409 L 229.05147,176.71109 C 230.64447,173.89109 232.23847,172.53909 233.83647,172.66009 L 239.35947,164.19209 C 238.74647,155.47709 234.20747,150.68809 225.73447,149.82809 C 222.91447,149.58609 222.05447,147.86709 223.16047,144.67609 C 224.14047,142.22309 224.14047,139.76609 223.16047,137.31309 C 220.70747,135.10609 220.70747,132.40209 223.16047,129.21109 C 225.36747,116.50809 220.83247,111.23109 213.21947,109.32409 L 213.21947,101.96109 C 212.97647,99.63309 211.25847,97.789091 208.06647,96.442091 L 202.91447,93.863091 L 200.33647,83.184091 C 206.84047,77.660091 215.31247,75.081991 225.74647,75.453091 C 229.42647,76.434091 231.63647,75.942091 232.37547,73.981091 L 233.84747,61.828091 L 243.78947,64.035091 L 248.57447,61.456991 L 247.47247,50.042991 L 253.36347,42.313088 L 260.35947,45.625091 L 264.03947,52.253991 L 269.19147,51.891091 L 277.29347,57.781091 L 278.59447,61.684091 L 282.42947,53.395091 L 277.60147,46.055091 L 268.71547,46.442091 L 265.62547,42.387088 L 258.28547,37.945088 L 250.17247,39.297088 L 244.76547,44.899091 L 240.32447,45.281091 L 233.56247,41.031088 L 235.10547,29.055088 C 237.80847,27.383088 241.28547,26.481088 245.53547,26.352088 L 249.39447,27.508088 L 254.80147,22.680088 L 260.98047,22.488088 C 266.09747,26.883088 271.63647,30.649088 277.78547,33.500088 L 277.20747,41.227088 L 281.06647,38.137088 L 291.69148,41.031088 L 297.48448,41.414088 L 300.57448,35.234088 L 305.20748,34.465088 L 307.71948,43.930091 L 317.95748,46.824091 L 325.29748,52.617091 L 322.20748,57.059091 L 325.48848,62.660091 L 324.71948,69.035091 L 321.43748,70.192091 L 315.45348,64.785091 L 315.26248,69.227091 L 308.50048,68.262091 L 298.07048,61.500091 L 288.21948,60.922091 L 285.39848,64.402091 L 296.43748,64.402091 L 299.38348,69.188091 L 302.32848,72.867091 L 299.82848,85.367091 L 300.69548,90.750091 L 302.32448,92.016091 L 316.68348,104.90209 L 318.15648,102.32809 L 304.89848,88.336091 L 310.42248,73.977091 L 325.15248,80.238091 L 326.99248,89.074091 L 334.35548,95.331991 L 336.19548,104.16809 L 332.51548,108.21909 L 333.25048,111.16409 L 338.77348,116.68409 L 340.24248,128.10209 L 335.45748,135.09809 L 328.09448,135.09809 L 326.25448,133.25809 L 312.26248,135.83209 L 310.78948,137.67209 L 322.20348,138.40609 L 330.30448,147.61009 L 335.82848,141.71909 L 340.24648,140.25009 L 347.98048,141.35209 L 348.60548,159.49209 L 349.09048,159.57809 L 363.78548,159.88309 L 361.33648,177.33609 L 358.27748,177.64109 L 358.27748,181.31309 L 367.76548,186.20709 L 365.62548,200.29309 L 359.19548,199.68409 L 363.48048,207.64509 L 358.58648,218.36009 L 358.20748,218.36009 L 357.41448,219.44909 L 354.64448,219.27709 L 352.91448,220.31309 L 352.05148,223.59809 L 358.45348,224.98109 L 362.67948,224.46509 L 371.64448,198.28909 L 371.64448,186.40609 L 364.96148,181.21109 L 367.55848,163.38709 L 362.36348,157.07809 L 355.30848,155.22309 L 354.94148,142.59809 L 343.43348,132.57409 L 345.28948,117.35209 L 340.09448,108.44209 L 342.32048,95.817091 L 351.97248,92.848091 L 363.10948,101.38709 L 368.30448,96.563091 L 382.41448,99.16009 L 386.49648,108.44209 L 389.83648,111.41009 L 396.89048,99.15609 L 410.62948,97.672091 L 414.71148,103.24209 L 414.71148,106.58209 L 421.39448,112.14909 L 416.94148,117.34409 L 426.59448,129.96909 L 424.36748,146.68009 L 420.28548,145.19509 L 409.51948,144.82809 L 401.35148,147.79709 L 392.04748,143.37909 L 398.34448,157.99209 L 397.21948,167.28909 L 410.17648,149.54309 L 419.46948,156.02009 L 420.59448,162.49609 L 414.39848,170.66409 L 417.49648,174.04309 L 423.97248,166.71909 L 435.80148,172.63309 L 438.33648,186.15209 L 433.26548,193.19509 L 438.33648,192.91809 L 454.10948,199.67609 L 452.14048,215.73109 L 461.15248,223.89909 L 459.46548,233.75809 L 455.52348,234.32009 L 454.39848,250.09409 C 452.24248,252.53109 443.88348,249.62509 443.69548,247.27709 L 444.53948,237.41809 L 433.83648,224.46109 L 436.65248,214.60209 L 431.86748,205.02709 L 420.88348,200.80509 L 419.19548,195.17209 L 407.64848,187.56709 L 398.91848,191.50809 L 396.94948,198.26609 L 402.01948,194.60609 L 405.96148,196.01209 L 411.03148,194.03909 L 417.78948,198.26209 L 411.59448,208.12109 L 409.05848,206.43409 L 407.09048,207.55909 L 407.37148,210.09009 L 411.87548,216.28509 L 410.75048,226.70709 L 403.42648,229.24209 L 407.64848,235.71909 L 400.89048,243.88709 L 393.84748,240.22709 L 392.16048,243.60609 L 393.28548,248.39509 L 388.21548,256.56309 L 384.83648,256.56309 L 376.62548,250.18009 L 377.50848,256.97309 L 379.58248,259.73409 L 387.87948,264.22709 L 398.24648,253.16409 L 398.24648,247.63309 L 406.54348,247.63309 L 410.69148,244.18009 L 410.69148,232.42609 L 416.56648,229.31709 C 416.91048,220.35609 419.44548,213.03909 423.48048,206.84409 L 430.04748,209.61009 L 430.73848,213.41009 L 428.32048,230.00409 L 438.69148,233.11309 L 439.72648,239.33609 L 432.46948,250.74209 L 444.91448,260.76609 L 438.00048,272.52009 L 430.74248,275.28509 L 431.42948,277.35609 L 434.19548,277.35609 L 441.45348,282.53909 L 434.53948,295.32809 L 423.13348,295.67209 L 423.13348,300.51209 L 413.10948,313.30109 L 398.93748,310.88309 C 396.75048,317.56709 393.98448,323.67209 389.94948,328.51209 L 380.26948,328.16809 L 382.34448,319.18009 L 373.69948,318.83609 L 357.45348,309.84809 L 366.44148,296.71109 L 365.05848,296.71109 L 361.25848,300.51209 L 351.92648,300.51209 L 342.93748,298.09409 L 341.21148,291.87109 L 358.84448,282.19209 L 366.44948,287.72309 L 370.94148,288.06709 L 378.89048,283.22709 L 382.34748,277.69909 L 385.80148,277.35609 L 396.16848,278.73809 L 402.73448,273.20709 L 403.76948,269.05909 L 398.58648,270.78509 L 389.59748,269.40209 L 379.91848,268.36709 L 373.00848,277.35609 L 367.82448,279.43009 L 360.56248,277.00809 L 356.48448,271.58609 L 347.03548,279.14509 L 337.34048,275.33609 L 334.74648,268.93009 L 327.64848,279.14509 C 317.43348,273.66409 309.23848,267.31709 305.48848,259.06309 L 302.54748,265.64109 L 293.37148,265.64109 L 288.17948,263.04709 L 284.02747,263.39109 L 283.50847,268.75809 L 280.56647,270.83209 L 277.62547,273.60209 L 273.99247,272.73809 L 266.72247,266.50809 L 267.41447,262.52709 L 272.43347,252.48409 L 291.30448,251.62109 L 301.17248,244.87109 L 305.84448,236.21509 L 317.78948,232.23409 L 325.05848,224.61709 L 327.48048,214.57409 L 327.75448,214.59809 L 331.35548,196.59009 L 326.15248,190.77409 L 324.01248,199.03909 C 324.95348,204.30509 323.93748,208.59409 320.95348,211.89909 L 321.87148,217.71509 L 315.75048,227.51209 L 302.27748,224.75809 L 302.27748,237.61709 L 295.23448,246.49609 L 275.33247,246.80109 L 270.74247,229.96109 L 265.53947,231.18409 L 261.56247,248.63309 L 255.13347,248.63309 L 255.13347,241.28509 L 250.84747,240.36709 L 248.70747,248.93809 L 239.52347,254.14109 L 229.42247,251.99609 L 229.72647,262.40609 L 219.62547,272.50809 L 210.74647,269.75409 L 214.11347,259.95709 L 219.62147,259.03909 L 229.41847,242.50809 C 234.09047,239.96509 237.50847,235.27009 236.46147,222.91009 L 236.76547,210.05109 L 233.39847,207.29709 C 233.41847,211.27009 232.84747,214.88309 230.95347,217.70309 L 221.46147,231.78509 L 229.42247,228.72709 L 233.39847,226.89109 C 233.96547,229.16809 234.05447,231.57009 233.09447,234.23809 L 229.60147,238.97309 L 222.68747,239.74609 L 221.46547,248.31709 L 219.01547,255.96909 L 209.71547,253.11009 L 209.71547,260.84809 L 202.26947,273.05909 C 198.79347,272.95709 196.71147,274.24609 194.82447,275.73809 L 190.95347,271.57009 L 190.35947,265.31709 L 181.42647,256.97709 L 181.42647,242.68009 L 173.68347,266.20709 L 177.25447,264.42209 L 182.61347,268.59009 L 179.34047,285.27009 L 187.97647,279.31309 L 193.33647,287.65209 L 190.95347,296.88309 L 189.76547,303.13709 L 184.70347,306.11309 L 170.70747,306.11309 L 169.21947,310.57809 L 173.09047,315.34409 L 173.38647,321.00009 L 169.51547,327.84809 L 154.92247,324.57409 C 154.04747,334.31709 146.19947,338.48109 137.35147,341.84809 C 130.69947,338.62109 126.23447,334.85209 122.75847,330.82809 C 120.77347,333.70709 118.39047,335.78909 115.60947,337.08209 L 108.16447,337.08209 C 105.09047,334.80109 102.40647,331.72309 100.12517,327.85209 L 93.574165,330.23409 L 87.023165,326.96109 L 87.617165,319.51609 C 69.945165,315.44509 62.597565,305.41809 65.578065,289.43409 L 69.148165,287.05109 C 62.003865,274.64109 58.425765,265.41009 58.425765,259.35209 L 65.273365,251.61009 L 78.676165,259.35209 L 81.949165,238.80109 L 88.797165,237.61309 L 95.945165,242.07809 L 92.969165,251.61009 L 95.347165,258.16009 L 100.41017,261.43409 L 101.30147,273.94209 L 104.87147,279.00409 L 115.29347,280.78909 L 120.35547,278.11009 L 133.75847,287.93809 L 139.11747,287.64109 L 146.85947,273.34809 L 138.51947,283.47309 L 134.64847,283.47309 L 122.14047,274.24209 L 116.78147,276.92209 L 110.23047,275.13709 L 104.87147,270.96909 L 104.87147,263.52409 L 106.65647,259.95309 L 101.89047,257.57009 L 99.508165,251.91409 L 101.59447,240.59809 L 95.043165,236.73109 L 99.508165,221.84009 L 94.746165,218.26609 L 98.019165,204.86309 L 109.03947,206.94509 L 112.60947,217.07009 L 112.90647,225.41009 L 120.94547,231.06709 L 123.02747,234.34009 L 123.91847,251.61309 L 138.80847,256.37509 L 152.80447,266.50009 L 160.54747,263.82009 L 160.75047,262.75009 L 157.92647,260.93409 L 152.03147,262.53909 L 146.67247,258.52009 L 143.18747,252.62509 L 129.25047,249.68009 L 126.03547,244.59009 L 127.64047,238.96109 L 130.58647,234.67609 L 129.78547,231.19209 L 119.60147,225.29709 L 120.13647,218.86709 L 126.03147,217.53109 L 116.11347,207.07809 C 114.50047,206.08209 114.21147,203.62909 115.24247,200.51209 C 116.96147,197.73809 119.16047,195.59409 121.92947,194.21909 L 137.03947,198.28909 L 145.44547,206.43409 L 153.59047,207.48409 L 159.76247,197.76209 L 154.90247,202.88309 C 153.01947,203.73409 150.65647,202.90209 148.07447,201.30909 C 145.29747,200.39109 143.71947,197.06709 142.68747,192.64109 C 139.66847,194.37109 136.16447,193.93409 132.44147,192.51209 C 130.12147,191.55109 128.67647,189.18409 128.10547,185.41809 C 126.50847,182.02409 124.18747,179.83609 121.53947,178.19209 L 113.52747,174.25409 L 111.95347,180.03109 L 114.18347,181.34409 C 116.32847,182.30509 118.64847,182.74209 121.14447,182.65609 L 122.19547,183.70709 L 123.24647,190.93409 L 121.41047,193.03509 L 110.49247,203.32809 L 101.91447,200.11309 L 104.32447,194.75409 C 91.461165,185.10609 87.883165,177.24209 93.601165,171.16409 C 95.027165,165.80509 99.316165,162.94509 106.46547,162.58609 L 113.96947,167.14109 L 109.06647,155.23409 L 109.06247,155.28909 z M 212.60147,600.64509 L 270.63647,600.64509 L 282.32847,602.10609 C 296.10548,596.05109 319.07048,600.02009 337.44148,598.97709 L 349.34048,596.89109 L 353.09748,592.09009 L 324.91448,595.43009 L 320.11348,595.43009 L 286.50048,590.62909 L 278.98847,594.80509 L 221.16047,595.21909 L 212.60147,600.64509 z M 241.44547,552.46109 L 236.82847,558.02709 L 247.42247,565.49609 L 265.75847,563.05509 L 277.98047,552.59809 L 288.98448,540.78109 L 285.85948,537.38709 L 249.45747,551.10609 L 241.44547,552.46109 z M 237.50447,533.71509 L 215.63647,532.76609 L 220.39047,524.61709 L 224.46547,524.48409 L 231.93347,518.37509 L 254.89047,517.28909 L 255.16047,520.27709 L 239.13347,525.98109 L 237.50447,533.72309 L 237.50447,533.71509 z M 248.10147,535.07009 C 249.45747,531.04309 260.05447,527.82809 266.03147,524.20309 L 275.80847,522.03109 L 279.47647,524.20309 L 283.95747,524.33609 L 284.90647,525.96509 L 273.22647,532.34809 L 248.09747,535.06309 L 248.10147,535.07009 z M 110.32447,70.988091 L 113.59447,94.231091 L 101.48447,100.77709 L 89.375165,97.176091 L 77.594165,105.36009 L 75.633165,113.54309 L 79.886165,119.76209 L 73.012165,128.59809 L 66.792965,130.23109 L 61.230365,124.34009 L 63.847565,115.83209 L 58.285065,109.28509 L 67.121065,102.41409 L 65.160065,99.79709 L 65.812465,86.047091 L 73.668165,72.625091 L 84.469165,75.242091 L 89.703165,70.988091 L 103.77747,74.586091 L 107.37547,70.003991 L 110.32047,70.984091 L 110.32447,70.988091 z M 72.676165,140.38709 C 67.765565,147.47709 64.492165,155.66009 64.820265,166.24609 L 55.984365,168.53509 L 50.093665,152.82409 L 55.328065,147.26209 L 51.730365,140.06309 L 53.038965,131.55109 L 63.839765,133.84009 L 70.058165,133.51609 L 72.676165,140.39109 L 72.676165,140.38709 z M 76.605165,127.62109 C 82.277165,125.22309 86.207165,122.82009 88.386165,120.42209 L 82.496165,113.55109 L 87.078165,100.13309 L 97.551165,103.73109 C 95.750165,113.98409 96.406165,123.69909 102.46147,132.20709 L 101.80847,161.01209 C 93.625165,162.32009 88.933165,167.12109 87.734165,175.41409 L 83.480165,179.34009 C 70.984165,172.57809 65.312465,162.53909 74.644165,145.29709 L 80.535165,143.33609 L 76.609165,127.62509 L 76.605165,127.62109 z M 84.969165,216.61009 L 89.457165,218.64909 L 85.379165,234.15609 L 67.831965,247.62109 L 64.570265,245.58209 L 65.386665,220.69209 L 77.219165,220.69209 L 82.113165,230.89109 L 84.969165,216.61009 z M 89.457165,207.63309 L 95.168165,199.47309 L 95.168165,193.76209 L 82.929165,182.33609 L 78.851165,192.12909 L 78.445165,199.47309 L 89.461165,207.63309 L 89.457165,207.63309 z M 82.113165,209.26609 L 62.527265,219.05909 L 55.593665,232.93409 L 60.488265,252.11309 L 58.042965,252.11309 L 42.538965,245.17609 L 41.316365,234.56709 C 39.956965,228.17609 44.035065,225.04709 48.660065,225.18409 L 51.105365,223.55509 L 44.171865,212.12909 L 46.617165,203.56309 L 57.226465,202.74609 L 59.671865,206.41809 L 65.382765,195.40209 L 73.136165,195.40209 L 75.582165,204.78509 L 82.109165,209.27409 L 82.113165,209.26609 z M 55.585865,252.93009 L 51.507765,268.43809 L 53.136665,272.92609 L 51.507765,281.08609 L 36.410065,279.04709 L 32.331965,273.33609 C 30.839765,265.44509 34.234365,262.45309 42.531165,264.36009 L 39.675765,251.71109 L 55.589765,252.93409 L 55.585865,252.93009 z M 62.523365,283.53909 L 55.589765,302.30909 L 57.218665,308.02009 L 54.363265,310.46509 L 47.019465,311.28109 L 40.902265,303.93809 L 46.613265,296.59409 L 41.308565,296.18809 L 32.742165,285.17209 C 41.187465,286.78109 45.281165,285.80509 51.511665,283.54309 L 62.527265,283.54309 L 62.523365,283.53909 z M 57.359365,310.20309 L 55.437465,311.85209 L 54.613265,315.69909 L 58.597565,320.09809 L 66.019465,320.23409 L 66.429665,318.03509 L 57.355365,310.19909 L 57.359365,310.20309 z M 121.11747,63.375091 L 118.31647,66.645091 L 113.17947,58.238091 L 117.61747,51.234091 L 129.76247,51.934091 L 140.50447,42.594088 L 148.67647,46.094091 L 155.21547,38.391088 L 161.28547,40.258088 L 162.44947,34.887088 L 166.88647,28.817088 L 175.05847,27.417988 L 177.85947,33.020088 L 179.25847,39.090088 L 180.42647,42.125088 L 188.83247,36.289088 L 198.40647,46.098091 L 201.90647,38.625088 L 211.48047,43.059088 L 208.21147,51.934091 L 213.81247,48.664091 L 222.45347,52.399091 L 223.62147,56.367091 L 228.28947,50.297091 L 235.76247,48.195091 L 241.83247,50.297091 L 242.29747,54.965091 L 237.16047,54.035091 L 236.22647,57.305091 L 229.22247,64.309091 L 227.12147,70.378991 L 215.21147,70.378991 L 211.71147,71.547091 L 209.84447,69.445091 L 207.97647,60.570091 L 199.57047,51.231091 L 187.66047,50.297091 L 180.89047,53.098091 L 178.32447,50.995991 L 171.32047,46.094091 L 166.18347,44.461091 L 155.20747,49.831991 L 147.50447,60.340091 L 129.75447,60.110091 L 121.11347,63.378991 L 121.11747,63.375091 z M 240.88347,275.26209 L 242.51547,267.99209 L 241.24647,263.08609 L 245.06247,260.54309 L 259.42247,260.90209 L 262.69147,257.63309 L 264.32447,252.18009 L 261.41847,253.99609 L 244.33247,253.99609 L 241.42647,257.08609 L 233.79347,257.44909 L 232.34047,265.44509 L 226.16047,273.07809 L 228.70347,274.71109 L 234.88347,276.89109 L 240.87947,275.25809 L 240.88347,275.26209 z M 245.79347,277.26209 L 252.15247,266.53909 L 260.87547,266.53909 L 258.51547,280.53109 L 251.24647,280.16809 L 245.79347,277.26209 z M 314.85148,289.68809 C 316.32848,289.62109 319.82848,282.69509 322.31648,279.19509 L 311.21948,277.58209 C 312.42948,281.61709 312.42948,288.27709 314.84748,289.68809 L 314.85148,289.68809 z M 313.64048,304.21909 L 330.99248,292.11309 L 333.61348,302.20309 C 339.53148,304.62509 345.44948,306.16809 351.37148,306.43809 L 356.21548,323.99209 L 347.13648,323.99209 L 343.10148,317.33609 L 337.04748,316.12509 L 334.62548,318.74609 L 331.80148,318.74609 L 313.03548,306.23409 L 313.64048,304.21909 z M 459.59748,301.97309 C 465.59048,299.74609 469.73848,296.59409 472.04348,292.52409 L 481.26248,292.29709 L 481.95348,298.05909 L 475.96148,309.58209 L 465.35948,310.27009 L 458.67648,304.28109 L 459.59748,301.97709 L 459.59748,301.97309 z M 484.02748,292.05909 L 485.87147,295.05109 L 492.09447,295.74209 L 496.47247,290.44209 L 501.77347,278.91809 C 502.00047,277.30509 501.62147,276.00009 500.62547,275.00009 L 496.47647,275.69209 L 493.02347,267.85609 L 492.79747,264.16809 L 490.49247,261.17209 L 481.27348,261.17209 L 482.65248,274.30909 L 485.64847,282.37509 L 484.03548,292.05509 L 484.02748,292.05909 z M 446.46148,309.57809 L 452.22248,294.59809 L 463.05148,294.82809 L 467.19948,288.83609 L 467.19948,283.77009 L 459.13348,278.69909 L 463.28148,267.40609 L 463.50848,263.48809 L 459.59048,256.34409 L 467.65648,264.18009 L 468.57448,277.77709 L 473.64448,285.15209 L 474.56248,287.68809 L 475.94548,287.91409 L 478.93748,282.61309 L 478.71148,280.07809 L 474.33248,279.15609 L 474.33248,277.31309 L 476.86748,273.62509 L 477.78948,258.18409 L 479.17248,253.34409 L 476.86748,250.35209 L 469.95748,250.35209 L 471.80148,241.13309 L 472.02748,238.59809 L 459.12148,237.91009 C 458.89448,247.74209 454.66848,253.88709 446.44548,256.34809 L 448.05448,272.71109 L 442.75448,279.16009 L 445.28548,292.29709 L 435.60548,302.66409 L 430.07448,300.13309 L 427.53948,301.51209 L 428.46148,308.65609 L 439.52348,312.11309 L 446.43748,309.57809 L 446.46148,309.57809 z M 466.67948,215.41409 L 469.50448,217.92609 L 468.87948,208.50809 L 457.89048,207.25409 L 456.00848,213.53109 L 466.68348,215.41409 L 466.67948,215.41409 z M 460.08648,195.63309 L 470.13348,189.66809 L 470.75848,181.50809 L 473.26948,175.86009 L 479.54748,175.86009 L 484.25448,170.52409 L 475.77748,163.30509 L 467.61748,158.59809 L 466.99248,152.94909 L 464.48048,152.00809 L 452.23848,169.90209 L 444.39048,170.21509 L 442.82448,177.43809 L 442.82448,186.22709 L 445.64848,184.66009 C 450.46148,188.32009 454.64848,194.81309 460.09048,195.64909 L 460.08648,195.63309 z M 442.81648,167.05909 L 452.54748,162.66409 L 454.11348,147.59409 L 449.40648,138.80509 L 453.80148,137.86309 L 457.87948,132.52709 L 457.87948,128.44909 L 453.17248,121.23109 L 448.46548,121.23109 L 447.21148,119.66409 L 448.46548,114.64509 L 447.21148,111.19209 L 433.71148,106.79709 L 428.68748,110.56309 L 427.74648,118.41009 L 432.76948,128.77009 L 432.76948,135.36309 L 430.88648,141.32809 L 426.17948,152.31709 L 426.49248,161.73409 L 442.81648,167.07009 L 442.81648,167.05909 z M 456.94548,140.36709 L 466.05148,131.57809 L 472.64448,129.38309 L 472.95748,137.86009 L 463.53948,147.27709 L 456.94548,140.37109 L 456.94548,140.36709 z M 429.00048,106.14109 C 437.78948,101.27409 446.58248,100.33209 455.37548,108.02409 L 456.31248,100.49209 L 454.42948,96.727091 L 455.68348,92.649091 L 456.93748,85.430091 L 448.14848,85.117091 C 441.24248,80.410091 435.17248,79.047091 429.93748,81.039091 L 428.99648,106.15609 L 429.00048,106.14109 z M 419.19548,96.848091 L 419.46948,88.297091 L 428.84748,75.059091 L 429.67248,66.234091 L 419.74248,66.234091 L 413.39848,55.753991 L 409.53948,53.551091 L 405.95348,54.375091 L 402.09448,60.442091 L 408.16048,67.336091 L 408.98448,72.024091 L 406.78148,75.610091 L 394.09448,65.406091 L 390.23448,67.610091 L 385.54748,65.956991 L 386.37148,62.649091 L 376.16848,56.856091 L 375.61748,61.266091 L 361.55148,61.539091 L 357.41448,70.641091 L 340.86348,68.160091 L 333.96948,71.469091 C 334.15248,69.356091 335.44148,67.242091 337.82848,65.125091 L 345.27348,60.988091 C 347.47648,60.531091 349.68348,60.809091 351.89048,61.813091 L 356.30148,62.086091 L 364.85148,56.020091 L 367.88348,53.262091 L 366.50448,50.503991 L 362.09448,48.574091 L 348.57848,47.195091 L 346.92648,48.574091 L 328.44548,41.406088 C 327.62148,47.289091 328.26248,53.176091 330.37548,59.059091 L 327.61748,73.125091 L 331.20348,75.055091 C 331.24648,85.399091 337.86748,89.167991 347.47648,89.949091 L 357.95748,89.125091 L 367.33648,94.363091 C 374.96548,92.344091 382.59748,93.628991 390.23048,98.223091 L 400.43348,94.363091 C 400.43348,91.149091 399.33248,89.035091 397.12548,88.020091 L 391.33248,86.367091 L 387.19548,88.297091 C 385.26548,86.094091 382.96948,84.620991 380.30148,83.887091 L 368.44148,80.027091 L 372.30148,75.617091 L 381.40248,75.891091 L 390.22648,82.234091 L 394.91448,80.305091 L 405.67248,83.336091 L 404.29348,92.988091 L 419.18748,96.848091 L 419.19548,96.848091 z M 295.60948,35.055088 L 301.40248,28.438088 L 288.16448,24.027088 L 282.64847,30.094088 C 283.38347,32.758088 285.59048,33.953088 289.26548,33.680088 L 295.60948,35.059088 L 295.60948,35.055088 z M 316.30148,31.742088 C 317.95348,34.774088 319.05848,39.742088 321.26548,40.844088 C 322.64448,42.035088 323.28548,42.128988 325.40248,41.117088 L 327.60548,34.774088 L 325.67648,31.188088 L 315.19548,24.292988 L 313.81648,30.910088 L 316.29748,31.734088 L 316.30148,31.742088 z M 347.47248,44.156091 L 354.91848,43.606091 L 358.50448,29.539088 L 356.30148,24.574088 L 346.64848,26.777088 L 344.99648,36.706988 C 346.64848,37.809088 346.64848,41.672088 347.47648,44.152091 L 347.47248,44.156091 z M 362.64448,46.367091 L 373.40248,44.988091 L 371.47248,36.988088 C 370.83248,34.875088 369.08248,34.231088 366.23448,35.059088 L 361.82448,38.367088 L 362.64848,46.367091 L 362.64448,46.367091 z M 389.95348,48.297091 L 400.43348,52.984091 L 397.67648,59.878991 L 393.81648,59.606091 L 389.95748,54.641091 L 386.92648,52.160091 L 389.95748,48.301091 L 389.95348,48.297091 z M 403.74648,51.606091 L 414.77748,48.848091 L 411.19148,38.367088 L 406.78148,37.542988 L 402.09448,43.059088 L 402.64448,46.367091 L 403.74648,51.606091 z M 294.14048,158.15609 L 302.89848,164.80109 L 301.37148,177.66009 L 310.85948,185.00809 L 307.18748,198.78509 L 303.51548,201.84809 L 298.92648,204.29309 L 296.47248,203.77409 L 296.47248,200.28909 L 299.05148,198.81709 L 301.99648,189.98109 L 296.47248,183.35209 L 293.16048,180.03909 L 295.00048,174.14909 C 296.10148,167.27709 293.77348,164.33209 288.00448,165.31309 L 285.42948,163.47309 L 284.69547,146.53509 L 275.12147,143.59009 L 278.06647,139.17209 L 293.16448,147.27409 L 293.53148,157.95309 L 294.14848,158.16409"
     style="fill:#39a66d;fill-rule:evenodd;stroke:none" />
</svg>
